<?xml version="1.0" encoding="utf-8"?>
<!-- Generator: Adobe Illustrator 21.0.0, SVG Export Plug-In . SVG Version: 6.00 Build 0)  -->
<svg version="1.1" id="图层_1" xmlns="http://www.w3.org/2000/svg" xmlns:xlink="http://www.w3.org/1999/xlink" x="0px" y="0px"
	 viewBox="0 0 2366.8 388.9" style="enable-background:new 0 0 2366.8 388.9;" xml:space="preserve">
<style type="text/css">
	.st0{fill:#96CF2B;}
	.st1{fill:#EFB321;}
</style>
<path class="st0" d="M349.7,276.5H394c0,0-147.6-487.1-314.9-19.7c-12.1,33.7-19.7,98.4,137.8,93.5c0,0-24.6-14.8-29.5-44.3
	c0,0-78.7,9.8-64-34.4c0,0,38.8-101.6,78.7-147.6c24.3-28.1,49.7-19.7,64,0C305.5,178.1,335,242.1,349.7,276.5z"/>
<path class="st1" d="M315.3,74.8c0,0,68.9-59,127.9,34.4s152.8,236.2-4.9,241.1c-157.5,4.9-310,19.7-187-172.2
	c29.5,39.4,29.5,39.4,29.5,39.4s-33.6,43.9-24,68c8.6,21.6,60.3,23.9,62.6,23.9c81.9-0.5,188.1,12.1,153.3-57.4
	c-39.4-78.7-88.6-177.1-127.9-137.8L315.3,74.8z"/>
<g>
	<path class="st0" d="M632.7,319.3V73h221.2c20.7,0,35.5,3.7,44.6,11.2s13.6,19.6,13.6,36.5v29.5c0,11.2-3.6,20.4-10.8,27.5
		c-7.2,7.2-17.7,12-31.3,14.5c13.9,2.3,24.6,7.5,32.2,15.8c7.6,8.2,11.5,18.6,11.5,31.1v31.5c0,16.1-6.3,28.2-19.1,36.2
		c-12.7,8.1-31.8,12.1-57.4,12.1H632.7V319.3z M826.4,212H691.9v62.9h134.5c11.4,0,19.1-1.6,23.2-4.8c4-3.2,6.1-8.9,6.1-17v-18.7
		c0-8.1-2.1-13.9-6.1-17.2C845.4,213.7,837.7,212,826.4,212z M826.4,113.1H691.9v58.3h134.5c10.4,0,17.5-1.3,21.4-4
		c3.8-2.7,5.7-7.2,5.7-13.6v-23.3c0-6.4-1.8-10.9-5.6-13.5C844.1,114.4,837,113.1,826.4,113.1z"/>
	<path class="st0" d="M1015.4,319.3V73h59.7v246.3H1015.4z"/>
	<path class="st0" d="M1331.7,117.1l-0.1,202.1h-60l0.1-202.1h-118.9V73h298v44.1L1331.7,117.1z"/>
	<path class="st0" d="M1528.5,319.3V73h48L1697,219.1l120-146.2h48.3v246.3h-55.7V149.7l-110.1,139.9h-11.7l-111.4-136l0.1,165.6
		L1528.5,319.3z"/>
	<path class="st0" d="M2202.7,117.1h-169.5v52.1h160.4c25.2,0,42.2,4,50.9,12.1s13.1,23.3,13.1,46v33.8c0,22.5-4.4,37.9-13.4,46.1
		s-25.8,12.2-50.6,12.2h-159.8c-25.4,0-42.6-4.1-51.6-12.2s-13.5-23.5-13.5-46.1v-6.8l53.5-9.9v29h181.2v-56.3h-159.5
		c-25.2,0-42.3-4.1-51.2-12.4c-8.9-8.2-13.3-23.5-13.4-46v-27.6c0-22.2,4.5-37.3,13.3-45.7c8.9-8.2,26-12.4,51.1-12.4h146.1
		c24.9,0,41.8,3.9,51,11.8s13.8,21.7,13.8,41.7v6l-52.1,11.1L2202.7,117.1z"/>
</g>
</svg>
