<?xml version="1.0" encoding="utf-8"?>
<!-- Generator: Adobe Illustrator 21.0.0, SVG Export Plug-In . SVG Version: 6.00 Build 0)  -->
<svg version="1.1" id="图层_1" xmlns="http://www.w3.org/2000/svg" xmlns:xlink="http://www.w3.org/1999/xlink" x="0px" y="0px"
	 viewBox="0 0 2366.8 388.9" style="enable-background:new 0 0 2366.8 388.9;" xml:space="preserve">
<style type="text/css">
	.st0{fill:#337AB7;}
</style>
<path class="st0" d="M1554.5,226.6c-8.5,9.6-19.2,16.6-29,24.6c-25.9,21.3-52.2,42.1-78,63.4c-9,7.5-15.9,17.1-22.9,26.4
	c-21.4,0-42.7,0-64.1,0c9.9-9.6,22.4-15.7,33.1-24.4c47.7-38.5,95.5-76.8,143.3-115.2c0.6-0.5,1.3-0.8,2-1.2c0.6-0.4,1.3-0.5,2-0.2
	c6.8,6.6,8.7,16.3,15.1,23.1C1556.7,224.8,1556.2,226,1554.5,226.6z"/>
<path class="st0" d="M112.3,95.4c16.4-17.2,32.7-34.4,49-51.7c1.7-1.8,4.2-3.1,4.7-5.9c0.5,0,1,0,1.6,0c22.3,21.7,44.5,43.6,67.1,65
	c5.1,4.8,5.5,7.4-0.4,11.5c-6.4,4.4-12.5,9.4-18,14.8c-4.3,4.2-6.8,3.1-10.5-0.7c-11.2-11.2-23-21.8-34-33.2
	c-4.4-4.5-6.5-3.5-10.1,0.4c-4.5,4.9-8.5,10.4-14.3,13.9c-9.7-3.7-19.2-7.8-29.2-10.5C115.8,98.3,113.5,97.7,112.3,95.4z"/>
<path class="st0" d="M83,226.9c4.9,24.8,17.7,44.4,38.1,59.2c-3.8,3.7-7.8,1.5-11.6,0.2c-16.5-5.6-33.2-10.4-49.9-15.4
	c-5.8-9-8.4-19.2-11-29.4c-0.7-2.8-0.1-6.2-2.9-8.3c0-5.2,0-10.4,0-15.6c1.9-1.7,4.2-2.3,6.4-1.5C62.3,220,73.3,221.6,83,226.9z"/>
<path class="st0" d="M83,226.9c-8.1-0.8-15.6-3.3-23.1-6.2c-4.6-1.8-9.2-3.6-14.3-3.1c0-5.7,0-11.5,0-17.2c3.3-10.4,3.6-21.6,9-31.4
	c1.3-0.9,2.8-1.6,4.3-1.1c10.2,3.3,20.9,4.8,30.2,10.6c-5.2,12.7-6.3,26.1-7.7,39.5C81.2,221.2,83.2,223.8,83,226.9z"/>
<path class="st0" d="M1136.3,173.4c2.3,0.1,4.4,0.3,6.4,0.3c43,0,86,0.1,129-0.1c15.3-0.1,30.6-1.3,45.7-4.2
	c4.4-0.8,5.6-0.1,4.3,4.6c-2.9,10.2-5.5,20.6-7.7,31c-1,4.8-3.4,5-7.2,4.2c-14.8-3.1-29.9-4.1-44.9-4.2c-42.2-0.2-84.4,0-126.6-0.2
	c-5.2,0-7.9,1-9.3,6.6c-7.2,30-14.6,60-22.2,89.9c-1.3,5.1-1.1,6.9,4.8,6.9c51.8-0.2,103.7,0.1,155.5-0.5
	c12.6-0.1,25.2-1.6,38.7-4.4c-4.6,11.7-8.8,22.2-12.9,32.8c-1.7,4.5-5.5,3.2-8.7,3.2c-34.7,0.1-69.3,0-104,0
	c-52.9,0-105.8,0-158.7,0c-2.8,0-5.7,0-9.8,0c10-17.4,14.7-35.8,19.2-54.1c18.2-74.3,36.4-148.7,54.7-223c1.2-4.7,1.7-9.3,1.1-13.9
	c-0.9-6.6,2-7.7,7.9-7.7c88.1,0.2,176.1,0.2,264.2,0c5.9,0,7.7,1.1,6.5,7.3c-1.3,7.1-1.4,14.5-1.9,21.7c-0.3,4.4-1,6.9-7,5.9
	c-24.7-4.4-49.8-3.5-74.7-3.4c-37,0-74,0-111,0c-3.7,0-6.6-0.2-7.9,5c-7.4,30.8-15.3,61.5-22.9,92.2
	C1136.6,170.5,1136.5,171.8,1136.3,173.4z"/>
<path class="st0" d="M814,339.5c16.2-29.8,20.9-61.9,28.7-93c15.3-60.9,29.8-122,44.5-183c1.4-6,3.2-11.9,1.5-18.3
	c-1.4-5.3,3.1-4.2,5.9-4.3c18.2-0.1,36.5,0,54.7,0c9.9,0,19.7,0,28.9,0c-17.3,42.8-25,88.2-36.3,132.5
	c-12.8,49.7-24.6,99.7-36.9,149.6c-0.7,2.8-1.8,5.8-0.7,8.4c2.6,6.9,0.1,8.4-6.6,8.3C870.1,339.3,842.5,339.5,814,339.5z"/>
<path class="st0" d="M1554.5,226.6c0.4-0.8,0.9-1.6,1.3-2.3c0.9-5.3,5.9-7,9.4-9.9c15.3-12.9,30.9-25.5,46.4-38.1
	c1.6-1.3,3.3-2.5,5.3-3.3c1.2-0.2,2.3-0.1,3.2,0.9c19.2,33.9,38.3,67.9,57.6,101.8c12.4,21.8,24,44.2,42.7,63.9c-9.1,0-16.6,0-24,0
	c-27.1,0-54.2,0-81.2,0c-4.8,0-8.3,0.6-6.8-6.8c1.3-6.2-1.1-13-4.3-18.7c-15.7-28.8-31.8-57.3-47.8-86
	C1555.9,227.4,1555.1,227.1,1554.5,226.6z"/>
<path class="st0" d="M1540.3,200.4l-0.7-0.2h-0.8c-30.7-51.7-58.3-105.3-91.6-155.7c1-1.2,2.7-0.5,4.1-0.5
	c32.3-0.1,64.5,0.1,96.8-0.1c5,0,6.8,1.1,6.6,6.4c-0.3,10,4.4,18.7,9.1,27c12.9,22.9,26.3,45.4,39.5,68.1c0.8,1.4,1.2,2.9,0.9,4.5
	c-0.5,2.2-2.1,3.5-3.7,4.8c-18.3,14.4-36.3,29.1-54.6,43.5C1544.2,199.5,1542.7,201.2,1540.3,200.4z"/>
<path class="st0" d="M317.2,97.5c-10.6,67.8-65.7,115.6-133,116c-4.6,0-6.5-0.5-5.3-6c14.9-63,65.7-106,130.5-110
	C312.1,97.4,314.6,97.5,317.2,97.5z"/>
<path class="st0" d="M2123.2,337.9c9-31.6,16.8-62.9,23.3-94.4c0.7-3.4,1.9-4.2,5-4.1c8.1,0.1,16.2,0.3,24.2-0.1
	c4.7-0.2,6.7,1.2,7.9,6c5.2,22.5,11,45,16.6,67.4c0.4,1.5,0.9,2.9,1.8,5.6c5.9-7.8,11.2-14.7,16.4-21.6
	c12.7-17.1,25.6-34.2,38.1-51.5c3.3-4.5,6.8-6.3,12.3-6c8,0.5,16.1,0.1,24.9,0.1c-2.2,7.6-4.5,14.6-6.2,21.7
	c-5.9,24.5-13,48.8-17.3,73.6c-0.6,3.6-2.8,3.1-5.1,3.1c-7.5,0-15.1,0-23.2,0c8.5-27,14.3-54.3,19.7-82.2c-1.6,2-3.2,4-4.7,6.1
	c-17.6,23.6-35.2,47.2-52.8,70.7c-3.3,4.4-19.7,7.9-24.1,5c-2.5-1.6-2.1-4.7-2.7-7.1c-6.2-25-12.1-50-19.4-75.4
	c-2,7.4-4.1,14.8-5.9,22.3c-4.6,18.9-9.3,37.9-13.6,56.9c-0.7,3-1.6,3.8-4.4,3.7C2130.4,337.8,2126.8,337.9,2123.2,337.9z"/>
<path class="st0" d="M1603,150.3c0.1-1.6,0.2-3.2,0.3-4.8c10.1-5,17.7-13.3,26.4-20.2c22.8-18.1,45.2-36.6,67.5-55.2
	c7.2-6,13-13.4,18.5-21c1.8-2.5,3.2-5.1,7.1-5.1c20,0.2,40,0.1,62.1,0.1c-59.6,39.7-110.7,86.8-165,129.8c-1,0-2-0.1-2.9-0.1
	C1611.2,166.6,1606.6,158.8,1603,150.3z"/>
<path class="st0" d="M59.6,270.9c6.3-4.5,11.3,1.2,16.3,2.8c12.7,4.1,26.1,6.4,38.3,12.1c1.9,0.9,4.6,0.2,6.9,0.2
	c12.5,7.3,25.9,11.8,40.1,14.1c11.7,5,23.8,8.6,35.9,12.5c6.7,2.1,13.4,4.1,19.9,6.7c3.3,1.3,7,2.6,6.8,7.3
	C164.6,357.6,87.5,330.4,59.6,270.9z"/>
<path class="st0" d="M1954.3,327c-1.2,7.1-3.3,11.5-12.1,11.2c-19-0.7-38-0.2-57-0.3c-2.8,0-5.7-0.3-8.5-0.9
	c-10.7-2.2-13.6-6.3-11.1-17.2c4-17.5,8.5-34.8,12.9-52.2c6.3-24.8,10.7-28.2,36.6-28.2c16.9,0,33.8,0,50.7,0c4.5,0,8.4-0.8,8,6.5
	s-4,4.7-7.9,4.6c-16.6-0.3-33.3-0.2-50-0.1c-5.2,0-7.9,3-9.1,7.9c-5,20.4-10,40.9-15.3,61.2c-1.5,5.9,0.8,7.5,6.2,7.5
	C1916.6,326.9,1935.3,327,1954.3,327z"/>
<path class="st0" d="M89.2,178.5c-8.7-1.1-16.6-4.7-24.9-7.1c-3.2-0.9-6.4-1.6-9.6-2.4c3.9-12.7,10.8-23.6,19.3-33.6
	c12-14.1,25.1-27.1,38.3-40c10.4,2.1,20.1,6.4,30.2,9.8c2.2,0.7,4.6,1.4,4.8,4.3c-9.9,12.6-21.5,23.6-32.7,35
	C104.6,154.7,95.5,165.5,89.2,178.5z"/>
<path class="st0" d="M223.9,326.7c-7.3-8.6-18.3-8.6-27.7-12.1c-9.8-3.7-19.9-6.5-29.9-9.7c-2.3-0.8-3.9-2.5-4.9-4.7
	c26.3,1,49.4-7,68.8-25c10.6,4.5,21.7,7.6,32.7,11.2c2.4,0.8,5.1,0.9,6.8,3.2C257.7,306.1,242.8,318.9,223.9,326.7z"/>
<path class="st0" d="M253.5,234.5c1.4-9,2.7-18,1.8-27.1c-0.3-3.3,1.7-4.5,3.8-6.1c8.5-6.3,17.2-12.6,25.6-19.1
	c4.1-3.2,5.7-3.1,6.9,2.5c4.7,21.6,5.5,43-1.9,64.1c-1.8,1.5-3.8,1.5-5.8,0.8c-8.7-3.1-17.8-5.2-26.3-9.1
	C254.9,239.4,251.7,238.5,253.5,234.5z"/>
<path class="st0" d="M253.5,234.5c2,5.8,7.9,5,12,6.7c7.7,3.2,16,5.2,24.1,7.6c-3,15.4-10.3,28.7-20,40.8c-13-1.4-24.6-7.5-37-10.8
	c-1.7-0.4-2.3-2-2.5-3.6C241.2,263.5,248.7,249.8,253.5,234.5z"/>
<path class="st0" d="M1831.9,320.7c-3.1,17.2-3.1,17.2-18.7,17.2c-3.6,0-7.2,0-10.9,0c2-17.2,2-17.2,18.4-17.2
	C1824.4,320.7,1828,320.7,1831.9,320.7z"/>
<path class="st0" d="M742.4,45.2c-9-2.8-18.3-4.2-27.6-4.2c-87.8-0.1-175.6-0.1-263.4-0.2c-4.4,0-6.6,0.3-5.7,5.8
	c0.7,4.8,0.3,9.7-0.9,14.7c-11.9,47.6-22.8,95.4-35.4,142.8c-12,45-18.7,91.4-37.5,135.4c2.9,0,5.9,0,8.9,0c79.5,0,158.9,0,238.4,0
	c12,0,23.9,0.1,35.8-1.4c29.3-3.6,51.7-16.5,60.8-45.8c6.9-22.3,12.8-45,17.5-67.8c4.4-21.2-2.6-30.4-23.6-35.4
	c-3.5-0.8-7.1-1.3-11.2-2.1c2.5-2.8,5-2.1,7.2-2.2c23.4-1.6,39.9-13.8,46.4-36.4c5.9-20.4,10.9-41.1,15.3-62
	C771.8,65.6,762.8,51.6,742.4,45.2z M655.2,218.8c-5.5,24.3-11.6,48.4-18.1,72.5c-3.3,12.2-10.4,16.9-23,17
	c-47.6,0.1-95.3,0-142.9,0.1c-5.3,0-7.4-0.7-5.8-7c8-30.8,15.6-61.8,23.1-92.8c1.3-5.3,3.6-6.8,9-6.7c24.2,0.3,48.4,0.1,72.6,0.1
	c23.7,0,47.4-0.1,71.1,0C655.4,202,658.4,205,655.2,218.8z M687.6,90.4c-4.9,20.7-10.1,41.4-15.5,61.9
	c-3.3,12.7-10.7,18.2-23.8,18.2c-47.9,0.1-95.8-0.1-143.8,0.2c-5.6,0-6.5-1.6-5.2-6.6c7.4-28.7,14.6-57.3,21.8-86
	c1.1-4.4,3.1-6.2,8-6.1c24.2,0.3,48.4,0.1,72.7,0.1c23.7,0,47.4-0.1,71.1,0C687.2,72.2,690.9,76.6,687.6,90.4z"/>
<path class="st0" d="M2092.8,239.5c-22.7-0.3-45.3-0.3-68,0c-14.4,0.2-21.8,6.5-25.4,20.7c-4.8,18.9-9.6,37.8-14.2,56.7
	c-3.5,14.3,1.3,20.6,16.3,21c11.2,0.2,22.4,0,33.6,0c10.4,0,20.8,0.1,31.3,0c17-0.1,24.8-6.2,28.9-22.6c4.5-18.2,8.9-36.3,13.4-54.5
	C2112.2,246.3,2107.6,239.7,2092.8,239.5z M2083.2,257.6c-5.3,20.6-10.5,41.3-15.5,62.1c-1.4,5.6-4.5,7.6-10.1,7.4
	c-6.8-0.3-13.5-0.1-20.3-0.1c-7,0-14.1-0.1-21.1,0c-5.1,0.1-7.2-1.8-5.8-7.2c5.3-20.7,10.4-41.4,15.5-62.1c1.3-5.1,4.4-7.4,9.5-7.4
	c14.1,0,28.1,0.1,42.2,0C2083,250.3,2084.6,252.3,2083.2,257.6z"/>
</svg>
