<?xml version="1.0" encoding="utf-8"?>
<!-- Generator: Adobe Illustrator 21.0.0, SVG Export Plug-In . SVG Version: 6.00 Build 0)  -->
<svg version="1.1" id="图层_1" xmlns="http://www.w3.org/2000/svg" xmlns:xlink="http://www.w3.org/1999/xlink" x="0px" y="0px"
	 viewBox="0 0 100 100" style="enable-background:new 0 0 100 100;" xml:space="preserve">
<style type="text/css">
	.st0{fill:#5D5D61;}
</style>
<path class="st0" d="M87,56.5C87.1,75.6,72.3,91.7,53.4,93c-19.1,1.4-36-12.3-38.5-31.2c-1.5-11.5,1.7-21.6,9.6-30
	c7.9-8.5,16-16.7,24-25.1c0.9-0.9,1.4-1.2,2.4-0.1c6.2,6.1,12.5,12.1,18.8,18.1c1.2,1.2,1.1,1.8-0.2,2.7c-2,1.5-3.9,3.1-5.8,4.8
	c-1,0.9-1.6,0.8-2.6-0.2c-3.4-3.4-7-6.7-10.4-10.1c-0.9-0.9-1.4-1-2.3,0C43,27.8,37.2,33.4,31.8,39.5c-7.1,8-8.7,17.4-4.4,27.2
	c4.4,9.8,12.4,14.9,23.2,14.9c13.8,0.1,24.9-11.4,24.8-25.3c0-1.9,0.5-3,2-4.1c2.3-1.5,4.4-3.2,6.6-4.9c1.3-1,1.6-0.7,2,0.8
	C86.6,51,86.8,53.8,87,56.5z"/>
<path class="st0" d="M56.2,56.5c-0.5,0-1.1,0-1.6,0c-1.5,0.2-1.6-0.5-1.3-1.7c4.2-18.2,19.2-30.8,37.9-32c2-0.1,2.4,0.2,1.9,2.2
	C89.1,43.3,74.9,55.4,56.2,56.5z"/>
</svg>
