<?xml version="1.0" encoding="utf-8"?>
<!-- Generator: Adobe Illustrator 21.0.0, SVG Export Plug-In . SVG Version: 6.00 Build 0)  -->
<svg version="1.1" id="图层_1" xmlns="http://www.w3.org/2000/svg" xmlns:xlink="http://www.w3.org/1999/xlink" x="0px" y="0px"
	 viewBox="0 0 100 100" style="enable-background:new 0 0 100 100;" xml:space="preserve">
<style type="text/css">
	.st0{fill:#5D5D61;stroke:#5D5D61;stroke-width:5;stroke-miterlimit:10;}
</style>
<path class="st0" d="M28.4,54.3v-7.7H15c-0.7,0-1.3-0.6-1.3-1.3c0-0.7,0.6-1.3,1.3-1.3h13.4v-7.5c0-15.3,12.1-27.7,27.4-27.7
	s27.4,12.4,27.4,27.7c0,0.7-0.5,1.3-1.2,1.3s-1.2-0.6-1.2-1.3c0-13.8-11.1-25.1-24.9-25.1S31,22.7,31,36.5V44h26.2
	c0.7,0,1.3,0.6,1.3,1.3c0,0.7-0.6,1.3-1.3,1.3l-26.2,0v7.7h19.2c0.7,0,1.3,0.6,1.3,1.3c0,0.7-0.6,1.3-1.3,1.3H31v7.8
	c0,13.8,11,25.1,24.8,25.1c13.8,0,24.8-11.3,24.8-25.1c0-0.7,0.6-1.3,1.3-1.3s1.4,0.6,1.4,1.3c0,15.3-12.3,27.7-27.5,27.7
	c-15.3,0-27.4-12.4-27.4-27.7v-7.8l-13.4,0c-0.7,0-1.3-0.6-1.3-1.3c0-0.7,0.6-1.3,1.3-1.3H28.4z"/>
</svg>
