<?xml version="1.0" encoding="utf-8"?>
<!-- Generator: Adobe Illustrator 21.0.0, SVG Export Plug-In . SVG Version: 6.00 Build 0)  -->
<svg version="1.1" id="图层_1" xmlns="http://www.w3.org/2000/svg" xmlns:xlink="http://www.w3.org/1999/xlink" x="0px" y="0px"
	 viewBox="0 0 100 100" style="enable-background:new 0 0 100 100;" xml:space="preserve">
<style type="text/css">
	.st0{fill:#5D5D61;}
</style>
<path class="st0" d="M53.6,94.9h-7.2V85C33,83.9,24.5,77.5,20.8,65.7L32.3,63c2.1,7.6,6.7,11.6,14,12.2V54
	c-9.5-2.2-15.7-4.9-18.5-8.3c-2.9-3.3-4.3-7.3-4.3-12c0-12.1,7.6-19,22.8-20.9V5.1h7.2v7.7c11.1,1.4,18.2,6.9,21.1,16.5l-10.9,2.3
	c-1.9-5.5-5.3-8.5-10.2-8.9v18.7c7,2,11.7,3.5,14.2,4.6c2.4,1.1,4.6,3.2,6.6,6.3c2,3.1,2.9,6.8,2.9,11c0,5.9-2,10.9-6.1,14.8
	c-4,3.9-9.9,6.2-17.6,6.9L53.6,94.9L53.6,94.9z M46.3,22.7c-3.1,0-5.7,0.8-7.8,2.3c-2.1,1.5-3.1,3.8-3.1,6.7c0,5,3.7,8,11,9
	L46.3,22.7z M53.6,75.2c3.4,0,6.2-1,8.5-3c2.3-1.9,3.4-4.5,3.4-7.6c0-5.2-4-8.6-11.9-10V75.2z"/>
</svg>
