<?xml version="1.0" encoding="utf-8"?>
<!-- Generator: Adobe Illustrator 21.0.0, SVG Export Plug-In . SVG Version: 6.00 Build 0)  -->
<svg version="1.1" id="图层_1" xmlns="http://www.w3.org/2000/svg" xmlns:xlink="http://www.w3.org/1999/xlink" x="0px" y="0px"
	 viewBox="0 0 100 100" style="enable-background:new 0 0 100 100;" xml:space="preserve">
<style type="text/css">
	.st0{fill:#5D5D61;stroke:#5D5D61;stroke-width:3;stroke-miterlimit:10;}
</style>
<path class="st0" d="M74.1,50.4l-3.2-2.3l2.3-3.2c2-2.8,3-6.1,3-9.7c0-8.7-6.3-15.7-14.1-15.7h-4.8V5.1h-4.9v14.4H40.5V5.1h-4.9
	v14.4H22.5v2.2c4.4,2.2,7.1,6.4,7.1,11.7V66c0,5.4-2.7,9.4-7.1,11.2v1.6h13.1v13.6h4.9V78.8h11.9v13.6h4.9V78.8h9
	c7.8,0,14.1-6.9,14.1-15.5C80.4,58.1,78.1,53.3,74.1,50.4L74.1,50.4z M67.9,36.8c0,4.2-2.1,8-5.3,10.3H38.4v-23h16.9
	C62.2,24.1,67.9,29.8,67.9,36.8z M59.5,74.7H38.4V50.4h26.1c4.5,1.9,7.7,6.4,7.7,11.6C72.1,69,66.5,74.7,59.5,74.7L59.5,74.7z"/>
</svg>
